<svg xmlns="http://www.w3.org/2000/svg" width="23" height="23" viewBox="0 0 23 23">
  <defs>
    <style>
      .cls-1 {
        fill: #fff;
        fill-rule: evenodd;
      }
    </style>
  </defs>
  <path id="Forma_1" data-name="Forma 1" class="cls-1" d="M1289.23,6268.85a1.6,1.6,0,0,0,1.62-1.59v-1.66a1.62,1.62,0,0,0-3.24,0v1.66A1.594,1.594,0,0,0,1289.23,6268.85Zm5.75-2.09h-3.26v0.81a2.465,2.465,0,0,1-4.93,0v-0.81h-6.58v0.81a2.465,2.465,0,0,1-4.93,0v-0.81l-3.29-.04V6287h21.37l1.65-.01Zm-1.62,18.62h-19.72v-12.95h19.72v12.95h0Zm-15.64-16.53a1.594,1.594,0,0,0,1.62-1.59v-1.66a1.62,1.62,0,0,0-3.24,0v1.66A1.6,1.6,0,0,0,1277.72,6268.85Zm2.5,5.32h2.59v2.25h-2.59v-2.25Zm4.19,0H1287v2.25h-2.59v-2.25Zm3.88,0h2.59v2.25h-2.59v-2.25Zm-8.07,3.74h2.59v2.25h-2.59v-2.25Zm4.19,0H1287v2.25h-2.59v-2.25Zm3.88,0h2.59v2.25h-2.59v-2.25Zm-8.07,3.81h2.59v2.25h-2.59v-2.25Zm-4.12-3.81h2.59v2.25h-2.59v-2.25Zm0,3.81h2.59v2.25h-2.59v-2.25Zm8.31,0H1287v2.25h-2.59v-2.25Zm3.88,0h2.59v2.25h-2.59v-2.25Z" transform="translate(-1272 -6264)"/>
</svg>
