<svg xmlns="http://www.w3.org/2000/svg" width="38.469" height="27.97" viewBox="0 0 38.469 27.97">
  <defs>
    <style>
      .cls-1 {
        fill: #a0a0a0;
        fill-rule: evenodd;
      }
    </style>
  </defs>
  <path id="Forma_1_copy" data-name="Forma 1 copy" class="cls-1" d="M198.549,2062.52a1.313,1.313,0,0,0,1.939,0,1.443,1.443,0,0,0,0-1.98l-9.831-10.16H223.1a1.371,1.371,0,0,0,1.357-1.4,1.388,1.388,0,0,0-1.357-1.42h-32.44l9.831-10.14a1.481,1.481,0,0,0,0-2.01,1.329,1.329,0,0,0-1.939,0l-12.158,12.57a1.409,1.409,0,0,0,0,1.98Z" transform="translate(-186 -2035)"/>
</svg>
