<svg xmlns="http://www.w3.org/2000/svg" xmlns:xlink="http://www.w3.org/1999/xlink" width="18" height="13" viewBox="0 0 18 13">
  <defs>
    <style>
      .cls-1 {
        fill-rule: evenodd;
        filter: url(#filter);
      }
    </style>
    <filter id="filter" x="1058" y="6811" width="18" height="13" filterUnits="userSpaceOnUse">
      <feFlood result="flood" flood-color="#fff"/>
      <feComposite result="composite" operator="in" in2="SourceGraphic"/>
      <feBlend result="blend" in2="SourceGraphic"/>
    </filter>
  </defs>
  <path id="Forma_1" data-name="Forma 1" class="cls-1" d="M1067.03,6818.8h0a0.713,0.713,0,0,0,.38-0.12l0.03-.02,0.02-.02,0.34-.3,8.19-7.3a0.123,0.123,0,0,0-.08-0.04H1058.1a0.142,0.142,0,0,0-.06.02l8.56,7.62A0.652,0.652,0,0,0,1067.03,6818.8Zm-9.03-6.77v10.81l6.14-5.35Zm11.88,5.5,6.12,5.32v-10.78Zm-1.95,1.74a1.392,1.392,0,0,1-1.8,0l-1.4-1.25-6.73,5.86v0.02a0.108,0.108,0,0,0,.1.1h17.81a0.1,0.1,0,0,0,.09-0.1v-0.02l-6.71-5.83Z" transform="translate(-1058 -6811)"/>
</svg>
