<svg xmlns="http://www.w3.org/2000/svg" width="38.469" height="28" viewBox="0 0 38.469 28">
  <defs>
    <style>
      .cls-1 {
        fill: #a0a0a0;
        fill-rule: evenodd;
      }
    </style>
  </defs>
  <path id="Forma_1" data-name="Forma 1" class="cls-1" d="M1018.43,4563.39a1.319,1.319,0,0,0-1.93,0,1.444,1.444,0,0,0,0,1.99l9.82,10.18H993.9a1.37,1.37,0,0,0-1.356,1.4,1.4,1.4,0,0,0,1.356,1.43h32.418l-9.82,10.15a1.469,1.469,0,0,0,0,2.01,1.319,1.319,0,0,0,1.93,0l12.15-12.58a1.406,1.406,0,0,0,0-1.99Z" transform="translate(-992.531 -4563)"/>
</svg>
