<svg xmlns="http://www.w3.org/2000/svg" width="38.469" height="28" viewBox="0 0 38.469 28">
  <defs>
    <style>
      .cls-1 {
        fill: #a0a0a0;
        fill-rule: evenodd;
        opacity: 0.5;
      }
    </style>
  </defs>
  <path id="Forma_1" data-name="Forma 1" class="cls-1" d="M313.435,2035.39a1.328,1.328,0,0,0-1.938,0,1.456,1.456,0,0,0,0,1.99l9.824,10.18H288.9a1.37,1.37,0,0,0-1.356,1.4,1.4,1.4,0,0,0,1.356,1.43h32.419l-9.824,10.15a1.481,1.481,0,0,0,0,2.01,1.328,1.328,0,0,0,1.938,0l12.15-12.58a1.421,1.421,0,0,0,0-1.99Z" transform="translate(-287.531 -2035)"/>
</svg>
