<svg xmlns="http://www.w3.org/2000/svg" width="85" height="84.96" viewBox="0 0 85 84.96">
  <defs>
    <style>
      .cls-1 {
        fill: #fff;
        fill-rule: evenodd;
      }
    </style>
  </defs>
  <path class="cls-1" d="M707.5,3032.36a42.5,42.5,0,1,1,42.488-42.5A42.544,42.544,0,0,1,707.5,3032.36Zm0-80.74a38.245,38.245,0,1,0,38.239,38.24A38.28,38.28,0,0,0,707.5,2951.62Zm-11.684,57.36a2.108,2.108,0,0,1-2.125-2.12v-34a2.127,2.127,0,0,1,3.179-1.84l29.741,17a2.125,2.125,0,0,1,0,3.69L696.87,3008.7A2.089,2.089,0,0,1,695.816,3008.98Zm2.124-32.45v26.67l23.335-13.34Z" transform="translate(-665 -2947.38)"/>
</svg>
