<svg xmlns="http://www.w3.org/2000/svg" width="20.094" height="13.78" viewBox="0 0 20.094 13.78">
  <defs>
    <style>
      .cls-1 {
        fill: #fff;
        fill-rule: evenodd;
      }
    </style>
  </defs>
  <path class="cls-1" d="M863.694,6811.85a2.625,2.625,0,0,0-1.562-.91,113.07,113.07,0,0,0-15.179,0,2.727,2.727,0,0,0-1.334.66c-1.62,1.47-1.113,9.37-.722,10.65a2.775,2.775,0,0,0,.644,1.21,2.618,2.618,0,0,0,1.357.7,99.266,99.266,0,0,0,15.2.04,2.647,2.647,0,0,0,1.4-.7C865,6822.04,864.893,6813.7,863.694,6811.85Zm-11.161,8.27v-5.53c2,0.93,3.553,1.82,5.388,2.78C856.408,6818.19,854.535,6819.11,852.533,6820.12Z" transform="translate(-844.5 -6810.69)"/>
</svg>
